<svg width="18" height="16" viewBox="0 0 22 22" fill="none" xmlns="http://www.w3.org/2000/svg">
<path d="M11 22C17.0751 22 22 17.0751 22 11C22 4.92487 17.0751 0 11 0C4.92487 0 0 4.92487 0 11C0 17.0751 4.92487 22 11 22Z" fill="#3AB54A"/>
<path d="M9.70645 16.4492C9.18718 16.4498 8.66729 16.4437 8.14801 16.4529C7.94461 16.4566 7.80695 16.3853 7.69572 16.2151C6.49187 14.3715 5.28679 12.5291 4.07371 10.6917C3.88751 10.4096 4.00796 10.3795 4.26422 10.3802C5.21243 10.3832 6.16064 10.3832 7.10824 10.3691C7.3393 10.3654 7.45667 10.4772 7.57466 10.6487C8.156 11.4912 8.74533 12.3288 9.33466 13.1658C9.67818 13.6537 9.68556 13.6519 10.0272 13.1388C11.6496 10.7015 13.275 8.2668 14.8887 5.82345C15.0436 5.58931 15.204 5.49406 15.4854 5.50082C16.3808 5.52417 17.2774 5.5168 18.1734 5.52725C18.2821 5.52848 18.4302 5.47255 18.4874 5.60714C18.531 5.70976 18.4235 5.79702 18.37 5.87998C16.1663 9.29859 13.959 12.7153 11.7571 16.1352C11.617 16.3527 11.4548 16.4615 11.1868 16.4523C10.6934 16.4369 10.1999 16.4486 9.70645 16.4492Z" fill="white"/>
</svg>
