<svg width="18" height="16" viewBox="0 0 22 22" fill="none" xmlns="http://www.w3.org/2000/svg">
<path d="M11 22C17.0751 22 22 17.0751 22 11C22 4.92487 17.0751 0 11 0C4.92487 0 0 4.92487 0 11C0 17.0751 4.92487 22 11 22Z" fill="#303030"/>
<path d="M9.70642 16.4492C9.18715 16.4498 8.66726 16.4437 8.14799 16.4529C7.94458 16.4566 7.80693 16.3853 7.6957 16.2151C6.49184 14.3715 5.28676 12.5291 4.07369 10.6917C3.88748 10.4096 4.00793 10.3795 4.26419 10.3802C5.2124 10.3832 6.16061 10.3832 7.10821 10.3691C7.33927 10.3654 7.45665 10.4772 7.57464 10.6487C8.15598 11.4912 8.74531 12.3288 9.33463 13.1658C9.67815 13.6537 9.68553 13.6519 10.0272 13.1388C11.6496 10.7016 13.275 8.2668 14.8887 5.82345C15.0436 5.58931 15.204 5.49406 15.4854 5.50082C16.3808 5.52417 17.2774 5.5168 18.1734 5.52725C18.2821 5.52848 18.4302 5.47255 18.4874 5.60714C18.531 5.70976 18.4235 5.79702 18.37 5.87998C16.1663 9.29859 13.9589 12.7153 11.7571 16.1352C11.617 16.3527 11.4547 16.4615 11.1868 16.4523C10.6933 16.4369 10.1999 16.4486 9.70642 16.4492Z" fill="#878585"/>
</svg>
