<svg width="33" height="25" viewBox="0 0 33 25" fill="none" xmlns="http://www.w3.org/2000/svg">
<path d="M27.31 2.05C25.19 1.08 22.96 0.39 20.66 0C20.37 0.51 20.04 1.2 19.81 1.75C17.37 1.39 14.88 1.39 12.44 1.75C12.18 1.15 11.89 0.57 11.57 0C9.26001 0.39 7.02001 1.08 4.90001 2.06C0.700006 8.32 -0.439994 14.43 0.130006 20.44C2.59001 22.27 5.35001 23.66 8.29001 24.56C8.95001 23.66 9.54001 22.72 10.04 21.72C9.09001 21.36 8.17001 20.92 7.29001 20.41C7.52001 20.24 7.74001 20.06 7.95001 19.89C13.12 22.33 19.11 22.33 24.27 19.89C24.49 20.07 24.72 20.25 24.94 20.41C24.06 20.93 23.14 21.37 22.18 21.73C22.68 22.72 23.27 23.67 23.93 24.56C26.87 23.67 29.63 22.28 32.09 20.44C32.77 13.47 30.96 7.42 27.31 2.05ZM10.76 16.75C9.17001 16.75 7.86001 15.29 7.86001 13.5C7.86001 11.71 9.14001 10.24 10.76 10.24C12.38 10.24 13.67 11.7 13.66 13.49C13.65 15.29 12.38 16.75 10.76 16.75ZM21.48 16.75C19.89 16.75 18.58 15.29 18.58 13.5C18.58 11.71 19.86 10.24 21.48 10.24C23.1 10.24 24.39 11.7 24.38 13.49C24.35 15.29 23.1 16.75 21.48 16.75Z" fill="white"/>
</svg>
