<svg width="31" height="25" viewBox="0 0 31 25" fill="none" xmlns="http://www.w3.org/2000/svg">
<path d="M1.84001 10.82C1.84001 10.82 15.13 5.37 19.73 3.45C21.5 2.68 27.49 0.22 27.49 0.22C27.49 0.22 30.25 -0.86 30.02 1.76C29.94 2.84 29.33 6.6 28.71 10.67C27.79 16.43 26.79 22.73 26.79 22.73C26.79 22.73 26.64 24.5 25.33 24.8C24.02 25.11 21.87 23.72 21.49 23.42C21.18 23.19 15.73 19.73 13.73 18.04C13.19 17.58 12.58 16.66 13.81 15.58C16.57 13.05 19.88 9.9 21.87 7.9C22.79 6.98 23.71 4.83 19.87 7.44C14.42 11.2 9.04001 14.74 9.04001 14.74C9.04001 14.74 7.81001 15.51 5.51002 14.82C3.21002 14.13 0.520015 13.21 0.520015 13.21C0.520015 13.21 -1.30999 12.05 1.84001 10.82Z" fill="white"/>
</svg>
