<svg width="32" height="26" viewBox="0 0 32 26" fill="none" xmlns="http://www.w3.org/2000/svg">
<path d="M31.8705 3.11914C30.8565 3.57304 29.7246 3.85236 28.628 4.02693C29.1468 3.94546 29.9132 3.0144 30.2198 2.63033C30.6914 2.06006 31.0805 1.40831 31.2927 0.698372C31.3163 0.64018 31.3399 0.57035 31.2809 0.535436C31.2102 0.512159 31.163 0.523797 31.1041 0.547074C29.8778 1.19882 28.6162 1.66435 27.2603 2.00186C27.1542 2.02514 27.0717 2.00186 27.0009 1.93203C26.8948 1.80401 26.7887 1.68763 26.6708 1.59452C26.1048 1.11735 25.4917 0.744925 24.8078 0.465606C23.9117 0.104818 22.9213 -0.0464803 21.9545 0.0117113C21.0112 0.0699028 20.0916 0.337584 19.2544 0.768202C18.4291 1.19882 17.6862 1.80401 17.0849 2.52559C16.4718 3.27044 16.012 4.16659 15.7762 5.09766C15.5521 6.00545 15.5757 6.90159 15.7054 7.82102C15.729 7.97232 15.7172 7.9956 15.5757 7.97232C10.317 7.20419 5.94269 5.34206 2.39369 1.35012C2.24041 1.17554 2.15787 1.17554 2.03997 1.36176C0.483593 3.6545 1.2382 7.34385 3.18367 9.15943C3.44306 9.40383 3.70246 9.64824 3.99723 9.85773C3.87932 9.89264 2.59413 9.75298 1.43864 9.15943C1.28536 9.06632 1.20283 9.11287 1.19104 9.28745C1.17925 9.54349 1.20283 9.76462 1.2382 10.0439C1.53297 12.3716 3.17188 14.5247 5.40032 15.3627C5.67151 15.4674 5.95449 15.5721 6.24925 15.6187C5.74225 15.7234 5.21167 15.8049 3.74962 15.7002C3.57276 15.6652 3.50202 15.7584 3.57276 15.9329C4.6693 18.8891 7.03923 19.7619 8.81963 20.2624C9.05544 20.3089 9.29126 20.3089 9.53886 20.3555C9.52707 20.3788 9.51528 20.3788 9.4917 20.402C8.90216 21.2866 6.86237 21.9499 5.90732 22.2758C4.17409 22.8694 2.29936 23.137 0.471802 22.9625C0.177035 22.9159 0.118081 22.9276 0.035546 22.9625C-0.046989 23.009 0.0237553 23.0789 0.118081 23.1603C0.483593 23.4047 0.860896 23.6142 1.24999 23.8237C2.40548 24.4289 3.61992 24.9177 4.88153 25.2552C11.4136 27.0359 18.771 25.7324 23.6759 20.9141C27.5315 17.1317 28.8756 11.9293 28.8756 6.70374C28.8756 6.49425 29.1232 6.38951 29.2647 6.28476C30.2669 5.53991 31.0805 4.6554 31.8233 3.6545C31.9884 3.43338 31.9884 3.23553 31.9884 3.15406C31.9884 3.14242 31.9884 3.13078 31.9884 3.13078C32.0002 3.03767 32.0002 3.06095 31.8705 3.11914Z" fill="white"/>
</svg>
